<svg width="223" height="40" viewBox="0 0 223 40" fill="none" xmlns="http://www.w3.org/2000/svg">
<g id="uuid-8dd9dc30-2f69-4863-aa21-e81e53cc80a8" clip-path="url(#clip0_1039_3095)">
<path id="Vector" d="M58.1483 30.2174C56.4774 29.2589 55.1907 27.8901 54.2956 26.1223C53.4005 24.3544 52.9529 22.292 52.9529 19.9386C52.9529 17.5852 53.4005 15.5302 54.2956 13.7698C55.1907 12.0094 56.4774 10.6519 58.1483 9.68963C59.8191 8.73112 61.7809 8.25 64.0261 8.25C65.559 8.25 67.0023 8.48869 68.3636 8.96235C69.7249 9.43601 70.8662 10.1073 71.7949 10.9689L70.4037 14.0122C69.3669 13.1917 68.3413 12.595 67.3268 12.2146C66.3124 11.8379 65.2345 11.6477 64.0895 11.6477C61.889 11.6477 60.1883 12.36 58.9911 13.7847C57.7939 15.2094 57.1935 17.2607 57.1935 19.9348C57.1935 22.609 57.7939 24.6938 58.9911 26.1185C60.1883 27.5432 61.889 28.2556 64.0895 28.2556C65.2345 28.2556 66.3124 28.0654 67.3268 27.6887C68.3413 27.312 69.3669 26.7115 70.4037 25.891L71.7949 28.9344C70.8662 29.7996 69.7212 30.4672 68.3636 30.9409C67.0061 31.4146 65.559 31.6533 64.0261 31.6533C61.7809 31.6533 59.8228 31.1721 58.1483 30.2136V30.2174Z" fill="#12415D"/>
<path id="Vector_2" d="M77.8965 30.6199C76.6769 29.9523 75.7333 28.9901 75.062 27.737C74.3944 26.4838 74.0587 25.0293 74.0587 23.3659C74.0587 21.7025 74.3944 20.2516 75.062 19.0097C75.7296 17.7677 76.6732 16.813 77.8965 16.1454C79.1161 15.4778 80.5333 15.1421 82.152 15.1421C83.7706 15.1421 85.1916 15.4778 86.4075 16.1454C87.627 16.813 88.5669 17.7715 89.2233 19.0097C89.8797 20.2479 90.2117 21.7025 90.2117 23.3659C90.2117 25.0293 89.8835 26.4838 89.2233 27.737C88.5632 28.9901 87.627 29.9486 86.4075 30.6199C85.1879 31.2875 83.7706 31.6232 82.152 31.6232C80.5333 31.6232 79.1124 31.2875 77.8965 30.6199ZM85.1319 27.1887C85.8219 26.3272 86.1688 25.0516 86.1688 23.3696C86.1688 21.6875 85.8219 20.4381 85.1319 19.5654C84.442 18.6927 83.4499 18.2526 82.152 18.2526C80.8541 18.2526 79.8583 18.6889 79.1571 19.5654C78.4559 20.4419 78.1054 21.7062 78.1054 23.3696C78.1054 25.033 78.4522 26.3272 79.1422 27.1887C79.8322 28.054 80.8242 28.4829 82.1221 28.4829C83.42 28.4829 84.442 28.0502 85.1319 27.1887Z" fill="#12415D"/>
<path id="Vector_3" d="M103.978 18.51L101.613 18.7375C98.9389 19.0172 97.6 20.3785 97.6 22.8177V31.3659H93.5534V15.5338H97.4061V18.316C98.2266 16.4177 99.9198 15.3808 102.49 15.2093L103.72 15.1123L103.981 18.51H103.978Z" fill="#12415D"/>
<path id="Vector_4" d="M119.515 24.1788H108.733C108.863 25.6483 109.303 26.7373 110.061 27.4496C110.814 28.162 111.896 28.5163 113.298 28.5163C115.047 28.5163 116.643 27.9569 118.09 26.8343L119.254 29.6203C118.519 30.2245 117.598 30.7093 116.487 31.0786C115.375 31.4441 114.256 31.6305 113.134 31.6305C110.545 31.6305 108.498 30.8958 106.999 29.4301C105.499 27.9643 104.75 25.9541 104.75 23.4068C104.75 21.7881 105.074 20.3522 105.719 19.0991C106.368 17.8496 107.278 16.8762 108.457 16.1862C109.632 15.4963 110.967 15.1494 112.455 15.1494C114.633 15.1494 116.356 15.8506 117.62 17.2529C118.881 18.6552 119.515 20.5872 119.515 23.0487V24.1825V24.1788ZM109.949 19.0282C109.289 19.7182 108.886 20.7103 108.733 22.0082H116.05C116.006 20.6916 115.681 19.6921 115.077 19.0133C114.473 18.3345 113.63 17.9914 112.552 17.9914C111.474 17.9914 110.605 18.3382 109.945 19.0282H109.949Z" fill="#12415D"/>
<path id="Vector_5" d="M135.56 16.1788C136.63 16.8688 137.458 17.8459 138.051 19.1103C138.644 20.3746 138.942 21.8254 138.942 23.4664C138.942 25.1075 138.644 26.5434 138.051 27.7704C137.458 29.0012 136.63 29.9522 135.575 30.6198C134.515 31.2874 133.296 31.6231 131.916 31.6231C130.793 31.6231 129.79 31.3844 128.906 30.9107C128.022 30.4371 127.34 29.7769 126.866 28.9378V37.1951H122.819V15.5373H126.803V17.9317C127.276 17.0478 127.962 16.3615 128.858 15.8767C129.753 15.3918 130.771 15.1494 131.916 15.1494C133.277 15.1494 134.489 15.4963 135.56 16.1862V16.1788ZM133.825 27.1737C134.538 26.3009 134.892 25.0627 134.892 23.4664C134.892 21.8702 134.538 20.5536 133.825 19.6473C133.113 18.741 132.121 18.286 130.845 18.286C129.57 18.286 128.552 18.7298 127.851 19.6137C127.149 20.4977 126.799 21.762 126.799 23.403C126.799 25.0441 127.149 26.2748 127.851 27.1587C128.552 28.0427 129.551 28.4865 130.845 28.4865C132.14 28.4865 133.109 28.0501 133.825 27.1737Z" fill="#12415D"/>
<path id="Vector_6" d="M156.166 24.1788H145.384C145.514 25.6483 145.954 26.7373 146.711 27.4496C147.465 28.162 148.546 28.5163 149.949 28.5163C151.698 28.5163 153.294 27.9569 154.741 26.8343L155.905 29.6203C155.17 30.2245 154.249 30.7093 153.138 31.0786C152.026 31.4441 150.907 31.6305 149.785 31.6305C147.196 31.6305 145.149 30.8958 143.649 29.4301C142.15 27.9643 141.4 25.9541 141.4 23.4068C141.4 21.7881 141.725 20.3522 142.37 19.0991C143.019 17.8496 143.929 16.8762 145.108 16.1862C146.283 15.4963 147.618 15.1494 149.106 15.1494C151.284 15.1494 153.007 15.8506 154.271 17.2529C155.532 18.6552 156.166 20.5872 156.166 23.0487V24.1825V24.1788ZM146.6 19.0282C145.939 19.7182 145.537 20.7103 145.384 22.0082H152.701C152.656 20.6916 152.332 19.6921 151.728 19.0133C151.124 18.3345 150.281 17.9914 149.203 17.9914C148.125 17.9914 147.256 18.3382 146.596 19.0282H146.6Z" fill="#12415D"/>
<path id="Vector_7" d="M168.824 28.4832L168.63 31.493C167.985 31.5564 167.388 31.5899 166.851 31.5899C164.628 31.5899 162.987 31.079 161.928 30.0534C160.869 29.0277 160.339 27.5023 160.339 25.4734V18.5774H157.296V15.534H160.339V10.8086H164.386V15.534H168.563V18.5774H164.386V25.41C164.386 27.5247 165.367 28.5839 167.332 28.5839C167.806 28.5839 168.306 28.5503 168.821 28.4869L168.824 28.4832Z" fill="#12415D"/>
<path id="Vector_8" d="M170.961 8.18262H175.429V12.1658H170.961V8.18262ZM171.189 31.3658V15.5337H175.235V31.3658H171.189Z" fill="#12415D"/>
<path id="Vector_9" d="M188.994 28.4832L188.8 31.493C188.155 31.5564 187.558 31.5899 187.021 31.5899C184.798 31.5899 183.157 31.079 182.098 30.0534C181.039 29.0277 180.509 27.5023 180.509 25.4734V18.5774H177.466V15.534H180.509V10.8086H184.556V15.534H188.733V18.5774H184.556V25.41C184.556 27.5247 185.537 28.5839 187.502 28.5839C187.976 28.5839 188.476 28.5503 188.99 28.4869L188.994 28.4832Z" fill="#12415D"/>
<path id="Vector_10" d="M205.896 15.5337V31.3659H201.947V28.9379C201.451 29.8032 200.783 30.4633 199.94 30.9295C199.097 31.3957 198.15 31.6269 197.091 31.6269C193.205 31.6269 191.262 29.4488 191.262 25.0852V15.5337H195.308V25.115C195.308 26.2377 195.536 27.0694 195.987 27.6064C196.438 28.1435 197.151 28.4157 198.124 28.4157C199.247 28.4157 200.149 28.0428 200.828 27.3006C201.507 26.5584 201.846 25.5701 201.846 24.3393V15.5337H205.893H205.896Z" fill="#12415D"/>
<path id="Vector_11" d="M212.062 31.1047C210.883 30.7615 209.887 30.2618 209.067 29.6165L210.2 26.8007C211.883 28.0315 213.814 28.6468 215.996 28.6468C216.925 28.6468 217.63 28.4977 218.118 28.1918C218.603 27.8897 218.846 27.4571 218.846 26.8977C218.846 26.424 218.678 26.0548 218.342 25.7974C218.007 25.5401 217.41 25.3014 216.545 25.0851L213.956 24.5033C212.487 24.1788 211.398 23.6492 210.685 22.9182C209.973 22.1834 209.615 21.2361 209.615 20.0688C209.615 19.0991 209.891 18.2413 210.439 17.4953C210.991 16.7494 211.756 16.1751 212.737 15.7648C213.717 15.3545 214.859 15.1494 216.153 15.1494C217.276 15.1494 218.361 15.321 219.405 15.6678C220.453 16.0147 221.374 16.4995 222.172 17.1261L221.039 19.8786C219.398 18.6925 217.757 18.0995 216.116 18.0995C215.232 18.0995 214.542 18.2599 214.042 18.5844C213.546 18.9089 213.296 19.3601 213.296 19.9457C213.296 20.3783 213.453 20.7326 213.766 21.0161C214.079 21.2958 214.579 21.5121 215.273 21.665L217.962 22.2804C219.536 22.6273 220.692 23.1718 221.427 23.914C222.161 24.6562 222.527 25.6371 222.527 26.8455C222.527 28.3149 221.934 29.4786 220.748 30.3438C219.562 31.2091 217.951 31.638 215.925 31.638C214.523 31.638 213.233 31.4664 212.058 31.1196L212.062 31.1047Z" fill="#12415D"/>
<path id="Vector_12" d="M30.303 0H9.69697C4.34148 0 0 4.34148 0 9.69697V30.303C0 35.6585 4.34148 40 9.69697 40H30.303C35.6585 40 40 35.6585 40 30.303V9.69697C40 4.34148 35.6585 0 30.303 0Z" fill="#00A9FE"/>
<path id="Vector_13" d="M20.8671 24.4996C19.9273 25.1486 19.0284 25.887 18.1967 26.674C18.193 26.6814 18.2042 26.6702 18.1967 26.674C18.1632 26.6404 18.1333 26.6106 18.0998 26.577C17.9021 26.3831 17.7156 26.1817 17.5329 25.9653C17.3799 25.7826 17.2308 25.5924 17.0965 25.3984C15.6046 23.4814 15.0937 21.639 15.1161 19.998C15.1422 17.887 16.0522 16.1043 16.8802 14.9183C17.0778 14.6124 17.2979 14.3178 17.5329 14.0343C17.7156 13.818 17.9021 13.6166 18.0998 13.4227C18.1333 13.3891 18.1669 13.3593 18.1967 13.3257C18.193 13.3183 18.2042 13.3294 18.1967 13.3257C19.0284 14.1164 19.931 14.8511 20.8671 15.5001C22.9333 16.9248 25.8387 17.7714 27.7781 15.8768C28.4979 15.1756 28.8932 14.1947 28.8932 13.1206C28.8932 11.9047 28.386 10.6852 27.5319 9.85346C26.2974 8.64506 24.4475 8.08562 22.3217 8.26091C21.0238 8.3728 19.7669 8.74949 18.5995 9.36488C17.4284 7.92898 16.4587 6.32898 15.7501 4.63201C15.4294 3.87117 14.5529 3.50567 13.7883 3.82642C13.0275 4.14343 12.6657 5.02362 12.9865 5.78819C13.7809 7.69402 14.8625 9.49541 16.1641 11.1178C16.1641 11.1178 14.8475 12.177 14.0419 13.1579C6.36642 21.7919 16.1604 28.8894 16.1604 28.8894C14.8587 30.5117 13.7771 32.3131 12.9827 34.219C12.6657 34.9835 13.0238 35.86 13.7846 36.1807C14.5492 36.5015 15.4256 36.136 15.7464 35.3751C16.455 33.6782 17.4247 32.0782 18.5958 30.6423C19.7632 31.2577 21.0238 31.6343 22.3179 31.7462C24.4401 31.9215 26.29 31.3621 27.5282 30.1537C28.3823 29.322 28.8895 28.1024 28.8895 26.8866C28.8895 25.8124 28.4904 24.8353 27.7743 24.1304C25.8312 22.2357 22.9296 23.0824 20.8634 24.5071L20.8671 24.4996ZM22.579 11.2521C22.8699 11.2259 23.1496 11.2222 23.4182 11.2371C24.2722 11.2894 24.9883 11.5542 25.4396 11.998C25.7231 12.2702 25.9021 12.7103 25.9021 13.1206C25.9021 13.3108 25.8648 13.5644 25.6932 13.7322C25.1189 14.2917 23.6867 13.8068 22.5678 13.0348C22.0531 12.6805 21.5571 12.3001 21.0797 11.8898C20.9865 11.8152 20.8932 11.7332 20.8037 11.6549C21.3818 11.4385 21.9748 11.3005 22.5827 11.2521H22.579ZM25.4359 28.0054C24.9846 28.4455 24.2722 28.7141 23.4144 28.7663C23.1459 28.7812 22.8662 28.7812 22.5753 28.7514C21.9674 28.7029 21.3743 28.5649 20.7963 28.3486C20.8858 28.2702 20.979 28.1882 21.0722 28.1136C21.5534 27.7033 22.0494 27.3229 22.5604 26.9686C23.6755 26.1966 25.1077 25.7117 25.6858 26.2712C25.8573 26.439 25.8946 26.6963 25.8946 26.8828C25.8946 27.2894 25.7156 27.7332 25.4322 28.0054H25.4359Z" fill="white"/>
</g>
<defs>
<clipPath id="clip0_1039_3095">
<rect width="222.534" height="40" fill="white"/>
</clipPath>
</defs>
</svg>
